<svg xmlns="http://www.w3.org/2000/svg" xmlns:xlink="http://www.w3.org/1999/xlink" xml:space="preserve" version="1.1" style="shape-rendering:geometricPrecision;text-rendering:geometricPrecision;image-rendering:optimizeQuality;" viewBox="0 0 333.33 416.66249999999997" x="0px" y="0px" fill-rule="evenodd" clip-rule="evenodd"><defs><style type="text/css">
   
    .fil0 {fill:black;fill-rule:nonzero}
   
  </style></defs><g><path class="fil0" d="M166.67 300.75l46.62 -69.31 -24.04 0 0 -91.23 -45.15 0 0 91.23 -24.04 0 46.62 69.31zm32.57 -286.02l0 26.26 -65.15 0 0 -26.26 10 0 0 16.26 45.15 0 0 -16.26 10 0zm0 40.16l0 26.26 -65.15 0 0 -26.26 10 0 0 16.26 45.15 0 0 -16.26 10 0zm0 40.16l0 26.26 -65.15 0 0 -26.26 10 0 0 16.26 45.15 0 0 -16.26 10 0zm-0.44 175.78l-32.13 47.77 -65.35 -97.17 32.77 0 0 -91.23 65.15 0 0 91.23 32.77 0 -33.22 49.39z"/></g><text x="0" y="348.33" fill="#000000" font-size="5px" font-weight="bold" font-family="'Helvetica Neue', Helvetica, Arial-Unicode, Arial, Sans-serif"></text><text x="0" y="353.33" fill="#000000" font-size="5px" font-weight="bold" font-family="'Helvetica Neue', Helvetica, Arial-Unicode, Arial, Sans-serif"></text></svg>