<svg xmlns="http://www.w3.org/2000/svg" xmlns:xlink="http://www.w3.org/1999/xlink" version="1.1" x="0px" y="0px" viewBox="0 0 469.3 586.625" style="enable-background:new 0 0 469.3 469.3;" xml:space="preserve"><path d="M419.6,66.8c-8.5,0-15.4-6.9-15.4-15.4S411.1,36,419.6,36c8.5,0,15.4,6.9,15.4,15.4S428.1,66.8,419.6,66.8z M435,143.4  c0-8.5-6.9-15.4-15.4-15.4c-8.5,0-15.4,6.9-15.4,15.4c0,8.5,6.9,15.4,15.4,15.4C428.1,158.8,435,151.9,435,143.4z M435,235.5  c0-8.5-6.9-15.4-15.4-15.4c-8.5,0-15.4,6.9-15.4,15.4c0,8.5,6.9,15.4,15.4,15.4C428.1,250.9,435,244,435,235.5z M435,327.6  c0-8.5-6.9-15.4-15.4-15.4c-8.5,0-15.4,6.9-15.4,15.4s6.9,15.4,15.4,15.4C428.1,342.9,435,336.1,435,327.6z M435,419.6  c0-8.5-6.9-15.4-15.4-15.4c-8.5,0-15.4,6.9-15.4,15.4s6.9,15.4,15.4,15.4C428.1,435,435,428.1,435,419.6z M342.9,51.4  c0-8.5-6.9-15.4-15.4-15.4s-15.4,6.9-15.4,15.4s6.9,15.4,15.4,15.4S342.9,59.9,342.9,51.4z M342.9,143.4c0-8.5-6.9-15.4-15.4-15.4  s-15.4,6.9-15.4,15.4c0,8.5,6.9,15.4,15.4,15.4S342.9,151.9,342.9,143.4z M342.9,235.5c0-8.5-6.9-15.4-15.4-15.4  s-15.4,6.9-15.4,15.4c0,8.5,6.9,15.4,15.4,15.4S342.9,244,342.9,235.5z M342.9,327.6c0-8.5-6.9-15.4-15.4-15.4s-15.4,6.9-15.4,15.4  s6.9,15.4,15.4,15.4S342.9,336.1,342.9,327.6z M342.9,419.6c0-8.5-6.9-15.4-15.4-15.4s-15.4,6.9-15.4,15.4s6.9,15.4,15.4,15.4  S342.9,428.1,342.9,419.6z M250.9,51.4c0-8.5-6.9-15.4-15.4-15.4s-15.4,6.9-15.4,15.4s6.9,15.4,15.4,15.4S250.9,59.9,250.9,51.4z   M250.9,143.4c0-8.5-6.9-15.4-15.4-15.4s-15.4,6.9-15.4,15.4c0,8.5,6.9,15.4,15.4,15.4S250.9,151.9,250.9,143.4z M250.9,235.5  c0-8.5-6.9-15.4-15.4-15.4s-15.4,6.9-15.4,15.4c0,8.5,6.9,15.4,15.4,15.4S250.9,244,250.9,235.5z M250.9,327.6  c0-8.5-6.9-15.4-15.4-15.4s-15.4,6.9-15.4,15.4s6.9,15.4,15.4,15.4S250.9,336.1,250.9,327.6z M250.9,419.6c0-8.5-6.9-15.4-15.4-15.4  s-15.4,6.9-15.4,15.4S227,435,235.5,435S250.9,428.1,250.9,419.6z M158.8,51.4c0-8.5-6.9-15.4-15.4-15.4s-15.4,6.9-15.4,15.4  s6.9,15.4,15.4,15.4S158.8,59.9,158.8,51.4z M158.8,143.4c0-8.5-6.9-15.4-15.4-15.4s-15.4,6.9-15.4,15.4c0,8.5,6.9,15.4,15.4,15.4  S158.8,151.9,158.8,143.4z M158.8,235.5c0-8.5-6.9-15.4-15.4-15.4s-15.4,6.9-15.4,15.4c0,8.5,6.9,15.4,15.4,15.4  S158.8,244,158.8,235.5z M158.8,327.6c0-8.5-6.9-15.4-15.4-15.4s-15.4,6.9-15.4,15.4s6.9,15.4,15.4,15.4S158.8,336.1,158.8,327.6z   M158.8,419.6c0-8.5-6.9-15.4-15.4-15.4s-15.4,6.9-15.4,15.4s6.9,15.4,15.4,15.4S158.8,428.1,158.8,419.6z M66.8,51.4  c0-8.5-6.9-15.4-15.4-15.4C42.9,36,36,42.9,36,51.4s6.9,15.4,15.4,15.4C59.9,66.8,66.8,59.9,66.8,51.4z M66.8,143.4  c0-8.5-6.9-15.4-15.4-15.4c-8.5,0-15.4,6.9-15.4,15.4c0,8.5,6.9,15.4,15.4,15.4C59.9,158.8,66.8,151.9,66.8,143.4z M66.8,235.5  c0-8.5-6.9-15.4-15.4-15.4c-8.5,0-15.4,6.9-15.4,15.4c0,8.5,6.9,15.4,15.4,15.4C59.9,250.9,66.8,244,66.8,235.5z M66.8,327.6  c0-8.5-6.9-15.4-15.4-15.4c-8.5,0-15.4,6.9-15.4,15.4s6.9,15.4,15.4,15.4C59.9,342.9,66.8,336.1,66.8,327.6z M66.8,419.6  c0-8.5-6.9-15.4-15.4-15.4c-8.5,0-15.4,6.9-15.4,15.4S42.9,435,51.4,435C59.9,435,66.8,428.1,66.8,419.6z"/><text x="0" y="484.3" fill="#000000" font-size="5px" font-weight="bold" font-family="'Helvetica Neue', Helvetica, Arial-Unicode, Arial, Sans-serif"></text><text x="0" y="489.3" fill="#000000" font-size="5px" font-weight="bold" font-family="'Helvetica Neue', Helvetica, Arial-Unicode, Arial, Sans-serif"></text></svg>